:FULLY-SPECIFIED
:FORCE-ALL-JOINTS-BE-3DOF
:DEGREES
102
root 7.34209 16.7162 -26.7667 3.4927 11.467 -3.76241
lfemur -26.9632 -1.60873 -11.5217
ltibia 38.9818 -0 0
lfoot -17.6463 -5.64231 -0.0164829
ltoes 23.5596 -0 0
rfemur -35.0914 -2.31806 2.83179
rtibia 82.8333 -0 0
rfoot 26.8149 17.0655 2.66451
rtoes 18.1607 -0 0
lowerback 1.54034 1.72139 0.481799
upperback -0.866307 2.34574 1.95503
thorax -1.81679 1.1764 1.6597
lowerneck -10.4936 -4.91472 2.41771
upperneck -1.25057 -6.81522 0.86939
head 1.31936 -3.37974 -0.427814
lclavicle 3.05631e-015 1.64991e-014 0
lhumerus -46.572 -9.97218 93.7184
lradius 48.5488 -0 0
lwrist 14.5226 0 0
lhand 5.95538 8.31054 0.117129
lfingers 7.12502 -0 0
lthumb 31.2656 35.5173 0.0695902
rclavicle 3.05631e-015 1.64991e-014 0
rhumerus -42.2072 2.05555 -72.8191
rradius 48.6761 -0 0
rwrist 5.12765 0 0
rhand -24.0981 -16.3481 0.0231064
rfingers 7.12502 -0 0
rthumb 2.39469 -46.4886 -0.0376641
103
root 7.39458 16.7197 -26.7334 3.01776 11.7565 -3.57416
lfemur -26.125 -1.96662 -11.8262
ltibia 38.5784 -0 0
lfoot -17.5791 -6.28408 -0.0112637
ltoes 23.9191 -0 0
rfemur -36.7069 -2.77273 2.07141
rtibia 85.1638 -0 0
rfoot 29.1534 18.6265 1.92831
rtoes 18.8223 -0 0
lowerback 1.9216 1.56767 0.276518
upperback -0.740556 2.13868 1.99461
thorax -1.90708 1.07617 1.81072
lowerneck -10.5198 -4.92002 2.34959
upperneck -1.03442 -6.81921 0.85139
head 1.39449 -3.37887 -0.425986
lclavicle 3.05631e-015 1.64991e-014 0
lhumerus -46.6515 -10.1585 93.8303
lradius 48.7402 -0 0
lwrist 14.7328 0 0
lhand 6.69063 8.55114 0.0847611
lfingers 7.12502 -0 0
lthumb 31.9698 35.6569 0.0501268
rclavicle 3.05631e-015 1.64991e-014 0
rhumerus -42.4115 1.8957 -71.8492
rradius 49.073 -0 0
rwrist 4.86428 0 0
rhand -23.7941 -16.1818 0.022301
rfingers 7.12502 -0 0
rthumb 2.68622 -46.29 -0.028472
104
root 7.44379 16.7234 -26.7023 2.54194 11.9932 -3.38955
lfemur -25.2869 -2.23457 -12.1362
ltibia 38.1796 -0 0
lfoot -17.5044 -6.85515 -0.00660304
ltoes 24.2596 -0 0
rfemur -38.2722 -3.33149 1.51446
rtibia 87.0409 -0 0
rfoot 31.0535 19.9921 1.21467
rtoes 19.1682 -0 0
lowerback 2.31739 1.41752 0.0741775
upperback -0.604269 1.93489 2.02444
thorax -1.99132 0.977423 1.95322
lowerneck -10.5511 -4.90951 2.28426
upperneck -0.833647 -6.8023 0.837318
head 1.46585 -3.36777 -0.422038
lclavicle 3.05631e-015 1.64991e-014 0
lhumerus -46.6987 -10.344 93.9197
lradius 48.9186 -0 0
lwrist 14.9123 0 0
lhand 7.33877 8.75072 0.0533328
lfingers 7.12502 -0 0
lthumb 32.5908 35.7681 0.0313636
rclavicle 3.05631e-015 1.64991e-014 0
rhumerus -42.5766 1.70872 -70.9155
rradius 49.5059 -0 0
rwrist 4.56857 0 0
rhand -23.3729 -16.0413 0.0184012
rfingers 7.12502 -0 0
rthumb 3.09039 -46.1056 -0.0189338
105
root 7.48928 16.7272 -26.6736 2.06646 12.1708 -3.20929
lfemur -24.454 -2.4037 -12.4472
ltibia 37.7862 -0 0
lfoot -17.4213 -7.3432 -0.00274896
ltoes 24.5756 -0 0
rfemur -39.7777 -3.99216 1.18646
rtibia 88.4096 -0 0
rfoot 32.4707 21.1516 0.560346
rtoes 19.1638 -0 0
lowerback 2.72786 1.27199 -0.124062
upperback -0.456854 1.73583 2.04357
thorax -2.06868 0.880795 2.08592
lowerneck -10.5878 -4.88183 2.22244
upperneck -0.650537 -6.76272 0.827595
head 1.53282 -3.34559 -0.415833
lclavicle 3.05631e-015 1.64991e-014 0
lhumerus -46.7101 -10.5271 93.983
lradius 49.0821 -0 0
lwrist 15.0576 0 0
lhand 7.88878 8.90449 0.0245373
lfingers 7.12502 -0 0
lthumb 33.1178 35.8477 0.0143301
rclavicle 3.05631e-015 1.64991e-014 0
rhumerus -42.6976 1.4912 -70.0249
rradius 49.9775 -0 0
rwrist 4.23816 0 0
rhand -22.8231 -15.9296 0.0110287
rfingers 7.12502 -0 0
rthumb 3.61799 -45.9371 -0.00936145
106
root 7.53062 16.7313 -26.6477 1.59258 12.283 -3.03397
lfemur -23.6313 -2.46527 -12.7543
ltibia 37.3992 0 0
lfoot -17.3285 -7.73592 0
ltoes 24.8613 0 0
rfemur -41.2156 -4.75181 1.11259
rtibia 89.2151 0 0
rfoot 33.361 22.0951 0
rtoes 18.775 0 0
lowerback 3.15315 1.13213 -0.317021
upperback -0.297715 1.54298 2.05108
thorax -2.13833 0.786902 2.20754
lowerneck -10.6307 -4.8356 2.16485
upperneck -0.487372 -6.69874 0.822634
head 1.59477 -3.31149 -0.407235
lclavicle -1.05232e-014 -1.78906e-015 0
lhumerus -46.6826 -10.7064 94.0168
lradius 49.2289 0 0
lwrist 15.1652 0 0
lhand 8.32967 9.00768 0
lfingers 7.12502 0 0
lthumb 33.5404 35.8923 0
rclavicle -1.05232e-014 -1.78906e-015 0
rhumerus -42.7698 1.23965 -69.1841
rradius 50.4904 0 0
rwrist 3.87067 0 0
rhand -22.1336 -15.8497 0
rfingers 7.12502 0 0
rthumb 4.27979 -45.7864 0
107
root 7.56958 16.7363 -26.6245 1.09588 12.3143 -2.85377
lfemur -22.7695 -2.41896 -13.0778
ltibia 36.998 -0 0
lfoot -17.2207 -8.069 0.00188754
ltoes 25.1704 -0 0
rfemur -42.6438 -5.627 1.31544
rtibia 89.3728 -0 0
rfoot 33.7058 22.8479 -0.45834
rtoes 17.9451 -0 0
lowerback 3.61411 0.995105 -0.509788
upperback -0.116726 1.3524 2.04734
thorax -2.20185 0.693639 2.32122
lowerneck -10.6823 -4.76438 2.11057
upperneck -0.337524 -6.6018 0.819669
head 1.65434 -3.26118 -0.396723
lclavicle -1.05232e-014 -1.78906e-015 0
lhumerus -46.6144 -10.8761 94.019
lradius 49.3676 -0 0
lwrist 15.2393 0 0
lhand 8.65099 9.05375 -0.0202081
lfingers 7.12502 -0 0
lthumb 33.8489 35.8997 -0.0111019
rclavicle -1.05232e-014 -1.78906e-015 0
rhumerus -42.7785 0.94859 -68.3459
rradius 51.0417 -0 0
rwrist 3.44406 0 0
rhand -21.2148 -15.7655 -0.0216985
rfingers 7.12502 -0 0
rthumb 5.16181 -45.61 0.00389298
108
root 7.6081 16.7429 -26.6038 0.555153 12.2601 -2.65894
lfemur -21.8242 -2.27384 -13.4369
ltibia 36.5652 -0 0
lfoot -17.095 -8.3858 0.00351541
ltoes 25.5525 -0 0
rfemur -44.1249 -6.62077 1.78973
rtibia 88.8806 -0 0
rfoot 33.5501 23.4538 -0.82572
rtoes 16.6702 -0 0
lowerback 4.12722 0.857634 -0.708002
upperback 0.0935682 1.15923 2.03362
thorax -2.26147 0.598537 2.43099
lowerneck -10.7443 -4.66465 2.05796
upperneck -0.19298 -6.46718 0.816158
head 1.71439 -3.19226 -0.38481
lclavicle -1.05232e-014 -1.78906e-015 0
lhumerus -46.508 -11.0333 93.9918
lradius 49.5073 -0 0
lwrist 15.2876 0 0
lhand 8.85765 9.04331 -0.0368175
lfingers 7.12502 -0 0
lthumb 34.0481 35.8719 -0.0190637
rclavicle -1.05232e-014 -1.78906e-015 0
rhumerus -42.7192 0.615964 -67.4648
rradius 51.6257 -0 0
rwrist 2.94352 0 0
rhand -20.0086 -15.6449 -0.0606762
rfingers 7.12502 -0 0
rthumb 6.3199 -45.3711 -0.00391346
109
root 7.646 16.7508 -26.5854 -0.0235877 12.1306 -2.45007
lfemur -20.8083 -2.03556 -13.8242
ltibia 36.106 -0 0
lfoot -16.9537 -8.68545 0.00503855
ltoes 25.9959 -0 0
rfemur -45.66 -7.70975 2.51827
rtibia 87.8078 -0 0
rfoot 32.9444 23.9279 -1.10217
rtoes 14.9946 -0 0
lowerback 4.6861 0.720075 -0.911272
upperback 0.329763 0.963574 2.01038
thorax -2.31734 0.501664 2.53688
lowerneck -10.8154 -4.53947 2.00661
upperneck -0.0539297 -6.29887 0.812811
head 1.77464 -3.1067 -0.371417
lclavicle -1.05232e-014 -1.78906e-015 0
lhumerus -46.3662 -11.1811 93.9383
lradius 49.6468 -0 0
lwrist 15.3116 0 0
lhand 8.96167 8.98237 -0.0497923
lfingers 7.12502 -0 0
lthumb 34.1496 35.8124 -0.0240678
rclavicle -1.05232e-014 -1.78906e-015 0
rhumerus -42.602 0.243458 -66.5505
rradius 52.2413 -0 0
rwrist 2.37758 0 0
rhand -18.5509 -15.4972 -0.116342
rfingers 7.12502 -0 0
rthumb 7.71955 -45.0818 -0.0251605
110
root 7.6831 16.7598 -26.5692 -0.634328 11.9356 -2.22782
lfemur -19.7347 -1.71005 -14.2326
ltibia 35.626 -0 0
lfoot -16.7995 -8.96711 0.00656718
ltoes 26.4893 -0 0
rfemur -47.2506 -8.8711 3.48335
rtibia 86.2238 -0 0
rfoot 31.9385 24.2827 -1.2917
rtoes 12.9629 -0 0
lowerback 5.28438 0.582742 -1.11918
upperback 0.588453 0.76555 1.97807
thorax -2.36961 0.403095 2.63896
lowerneck -10.8945 -4.39188 1.95615
upperneck 0.0794421 -6.10085 0.810304
head 1.83482 -3.00648 -0.35647
lclavicle -1.05232e-014 -1.78906e-015 0
lhumerus -46.1918 -11.3223 93.8616
lradius 49.7851 -0 0
lwrist 15.3127 0 0
lhand 8.97504 8.87688 -0.0593867
lfingers 7.12502 -0 0
lthumb 34.1647 35.7245 -0.0264605
rclavicle -1.05232e-014 -1.78906e-015 0
rhumerus -42.4368 -0.167024 -65.6124
rradius 52.8871 -0 0
rwrist 1.75474 0 0
rhand -16.8776 -15.332 -0.187881
rfingers 7.12502 -0 0
rthumb 9.32623 -44.754 -0.0613894
111
root 7.71921 16.7696 -26.5548 -1.27105 11.6852 -1.99296
lfemur -18.6161 -1.30356 -14.6548
ltibia 35.1305 -0 0
lfoot -16.6347 -9.22992 0.00816952
ltoes 27.021 -0 0
rfemur -48.898 -10.0827 4.66661
rtibia 84.1977 -0 0
rfoot 30.5813 24.529 -1.40128
rtoes 10.6195 -0 0
lowerback 5.91566 0.445901 -1.33126
upperback 0.866232 0.565267 1.93718
thorax -2.41844 0.302903 2.73728
lowerneck -10.9804 -4.22492 1.90619
upperneck 0.206962 -5.87714 0.809285
head 1.89464 -2.89356 -0.339897
lclavicle -1.05232e-014 -1.78906e-015 0
lhumerus -45.9877 -11.4597 93.7646
lradius 49.9208 -0 0
lwrist 15.2926 0 0
lhand 8.90975 8.73279 -0.066045
lfingers 7.12502 -0 0
lthumb 34.1047 35.6116 -0.0266945
rclavicle -1.05232e-014 -1.78906e-015 0
rhumerus -42.2332 -0.61329 -64.66
rradius 53.562 -0 0
rwrist 1.08351 0 0
rhand -15.0246 -15.1584 -0.274
rfingers 7.12502 -0 0
rthumb 11.1054 -44.4 -0.113572
